<?xml version="1.0" standalone="no"?>
<!DOCTYPE svg PUBLIC "-//W3C//DTD SVG 20010904//EN"
 "http://www.w3.org/TR/2001/REC-SVG-20010904/DTD/svg10.dtd">
<svg version="1.0" xmlns="http://www.w3.org/2000/svg"
 width="398.000000pt" height="398.000000pt" viewBox="0 0 398.000000 398.000000"
 preserveAspectRatio="xMidYMid meet">

<g transform="translate(0.000000,398.000000) scale(0.100000,-0.100000)"
fill="#000000" stroke="none">
<path d="M1163 3212 l-33 -37 -23 27 -22 28 -83 -81 c-49 -49 -82 -75 -82 -65
0 9 -3 16 -7 16 -21 -1 -37 -22 -53 -71 l-18 -53 -19 32 c-10 17 -22 32 -26
32 -13 0 -47 -82 -47 -114 0 -23 -3 -27 -17 -21 -45 18 -48 17 -66 -32 -9 -26
-20 -76 -23 -110 -4 -35 -9 -63 -11 -63 -2 0 -13 4 -23 10 -15 8 -19 5 -24
-16 -4 -14 -4 -40 0 -58 5 -32 4 -34 -30 -40 -20 -4 -36 -10 -36 -13 0 -4 13
-21 30 -38 29 -30 29 -31 15 -70 -8 -22 -14 -55 -15 -73 0 -29 2 -32 24 -26
22 5 23 3 30 -63 4 -37 18 -117 33 -176 l26 -108 -23 -41 c-50 -88 -2 -235
114 -348 82 -81 122 -101 200 -98 l59 2 29 -75 c32 -85 96 -164 175 -219 l50
-34 -59 -28 c-32 -15 -78 -40 -101 -56 -23 -16 -77 -46 -120 -66 -77 -37 -109
-68 -123 -122 -3 -12 -27 -44 -53 -71 -41 -43 -51 -61 -71 -134 -42 -158 -110
-586 -110 -700 l0 -39 900 0 c495 0 900 2 900 3 0 2 -9 39 -20 82 -11 43 -20
85 -20 94 0 9 31 -15 73 -56 80 -80 123 -103 193 -103 79 0 124 19 184 80 46
46 73 91 163 267 93 184 107 218 107 261 0 36 5 54 20 67 22 20 26 61 9 99
-10 21 -8 35 11 82 18 43 21 60 12 74 -9 14 -6 20 14 31 14 7 47 43 73 79 45
61 53 67 140 104 72 30 92 43 97 62 15 57 -16 74 -95 50 -96 -30 -99 -30 -61
1 74 59 130 116 130 133 0 21 -31 50 -54 50 -10 0 -54 -25 -97 -56 -43 -30
-79 -53 -79 -51 0 3 25 47 55 98 59 100 65 126 36 153 -36 33 -62 17 -117 -69
-94 -146 -93 -146 -75 -17 17 125 10 157 -35 168 -42 11 -62 -19 -74 -110 -12
-82 -41 -184 -64 -226 l-14 -25 -19 35 c-26 49 -85 108 -117 116 -19 4 -33 1
-46 -11 -27 -24 -25 -35 13 -93 25 -37 35 -65 40 -110 4 -33 16 -84 27 -113
18 -44 19 -54 7 -61 -8 -4 -24 -30 -36 -58 -15 -36 -27 -50 -41 -50 -27 0 -63
-38 -57 -60 3 -13 -3 -22 -24 -30 -22 -10 -31 -23 -44 -66 -9 -30 -19 -54 -24
-54 -5 0 -35 33 -67 73 -170 210 -267 299 -340 313 -18 3 -51 22 -73 43 -36
34 -38 38 -24 56 114 152 183 516 148 778 -9 62 -22 171 -30 242 -14 135 -46
296 -71 368 -8 23 -22 74 -31 112 -26 118 -79 204 -194 317 -73 71 -105 90
-169 102 -14 2 -45 12 -70 21 -35 14 -84 18 -225 20 -137 1 -191 6 -225 18
-25 9 -47 17 -50 17 -3 0 -20 -17 -37 -38z m800 -402 c57 -21 103 -63 136
-122 37 -68 85 -294 95 -453 3 -44 12 -120 21 -170 8 -49 15 -126 15 -170 0
-91 -17 -247 -29 -255 -13 -9 -51 -81 -52 -98 -1 -27 -17 18 -18 50 -1 35 -56
98 -86 98 -35 0 -85 -12 -81 -19 3 -4 -7 -8 -20 -9 -14 -1 -47 -12 -74 -25
-27 -13 -47 -20 -44 -15 3 4 0 8 -6 8 -6 0 -13 -7 -16 -15 -4 -10 -10 -12 -18
-6 -6 5 -29 6 -53 1 -24 -4 -43 -5 -43 -3 0 2 -5 1 -11 -3 -7 -4 -46 -7 -88
-7 -85 1 -126 -10 -115 -29 6 -9 3 -9 -9 0 -14 12 -19 10 -36 -19 -16 -25 -20
-47 -18 -86 3 -42 1 -51 -9 -42 -7 6 -19 7 -26 3 -7 -4 -10 -4 -6 1 10 11 -61
57 -75 49 -7 -4 -9 -4 -5 0 12 14 -15 35 -29 24 -9 -8 -15 -4 -22 13 -10 23
-10 24 -10 2 -1 -15 -7 -21 -21 -20 -17 1 -20 9 -21 47 0 40 -1 42 -10 20 -6
-14 -8 -38 -5 -55 3 -17 0 -37 -7 -47 -11 -14 -13 -3 -11 65 0 45 0 64 -2 42
-2 -22 -7 -56 -10 -75 l-6 -35 -19 24 -19 23 -1 -23 c-1 -31 -6 -16 -15 46 -7
47 -8 48 -15 20 l-7 -30 -1 35 c-1 33 -20 81 -21 53 0 -7 -3 -12 -7 -11 -5 1
-30 -2 -56 -7 -72 -11 -112 5 -190 79 -131 125 -167 295 -73 345 43 23 97 0
164 -69 31 -33 63 -60 70 -60 6 0 12 -6 13 -12 0 -10 2 -10 6 0 10 24 32 12
36 -20 3 -29 4 -28 5 9 1 23 6 43 12 45 6 2 5 20 -1 48 -6 25 -11 75 -11 111
0 55 7 81 37 150 l37 84 -11 123 c-12 118 -11 124 9 152 32 45 91 86 133 93
21 3 55 16 75 29 34 21 48 23 192 24 161 1 224 8 250 28 8 7 35 20 60 30 25
10 61 26 80 36 19 11 36 19 37 20 1 0 26 -9 56 -20z m1133 -1291 c-21 -148
-21 -159 4 -159 22 0 47 30 123 145 50 76 78 98 85 65 1 -9 -29 -68 -69 -133
-65 -109 -78 -147 -48 -147 6 0 56 32 110 70 55 39 104 70 108 70 5 0 11 -7
15 -15 3 -10 -19 -34 -66 -72 -128 -104 -144 -120 -131 -134 10 -10 34 -6 119
20 58 18 108 30 111 27 15 -15 -14 -36 -96 -70 -85 -35 -93 -41 -133 -98 -24
-34 -55 -70 -70 -81 -25 -19 -29 -19 -45 -5 -28 24 -116 66 -166 78 -42 11
-47 16 -71 70 -14 31 -26 75 -26 96 0 57 -16 103 -50 145 -16 21 -30 40 -30
43 0 15 48 3 67 -16 39 -40 58 -64 60 -76 2 -6 28 -35 58 -65 52 -50 55 -56
55 -101 0 -34 4 -46 13 -43 25 8 12 84 -22 132 -29 41 -31 46 -17 67 22 35 56
154 67 238 11 77 24 99 47 76 11 -11 11 -32 -2 -127z m-1024 84 c13 -12 18
-13 18 -3 0 7 3 10 6 7 4 -4 1 -13 -6 -22 -7 -8 -13 -41 -14 -74 0 -32 -4 -57
-8 -55 -5 4 -22 -61 -23 -91 0 -5 -10 -18 -23 -28 -12 -10 -20 -23 -17 -28 4
-5 -1 -6 -9 -3 -9 3 -16 2 -16 -2 0 -5 -19 -9 -43 -9 -47 0 -58 18 -28 43 14
12 14 12 -4 8 -11 -3 -44 -10 -74 -16 -57 -11 -78 -20 -45 -20 17 0 16 -3 -6
-25 -25 -25 -120 -51 -120 -34 0 5 -6 9 -13 9 -17 0 -80 58 -96 88 -7 12 -16
20 -21 17 -6 -3 -7 0 -5 8 3 7 -3 21 -14 31 -11 10 -17 24 -15 31 3 7 1 16 -5
20 -15 9 -14 65 2 70 6 2 77 6 157 9 79 3 146 9 148 14 1 5 16 8 32 6 17 -2
30 1 30 7 0 6 4 8 9 5 5 -3 23 -1 40 5 27 10 30 13 19 28 -12 14 -11 14 4 3
14 -11 22 -11 45 1 38 20 73 20 95 0z m69 -106 c-10 -9 -11 -8 -5 6 3 10 9 15
12 12 3 -3 0 -11 -7 -18z m-30 -80 c-10 -9 -11 -8 -5 6 3 10 9 15 12 12 3 -3
0 -11 -7 -18z m-656 4 c3 -5 2 -12 -3 -15 -5 -3 -9 1 -9 9 0 17 3 19 12 6z
m-278 -36 c0 -8 -4 -12 -9 -9 -5 3 -6 10 -3 15 9 13 12 11 12 -6z m300 -17
c-3 -8 -6 -5 -6 6 -1 11 2 17 5 13 3 -3 4 -12 1 -19z m27 -86 c3 -5 -1 -9 -9
-9 -8 0 -12 4 -9 9 3 4 7 8 9 8 2 0 6 -4 9 -8z m80 -21 c3 -5 -1 -11 -9 -14
-9 -4 -12 -1 -8 9 6 16 10 17 17 5z m-112 -28 c-2 -12 -6 -23 -7 -23 -1 0 -5
11 -7 23 -3 14 0 24 7 24 7 0 10 -10 7 -24z m563 18 c3 -5 2 -12 -3 -15 -5 -3
-9 1 -9 9 0 17 3 19 12 6z m-290 -11 c3 -5 1 -10 -4 -10 -6 0 -11 5 -11 10 0
6 2 10 4 10 3 0 8 -4 11 -10z m-167 -35 c-3 -3 -9 2 -12 12 -6 14 -5 15 5 6 7
-7 10 -15 7 -18z m-3 -130 c69 -17 202 -20 274 -4 135 29 118 -87 -21 -139
-180 -67 -399 -48 -487 42 -33 34 -33 34 -12 45 18 10 21 21 21 81 l0 69 83
-39 c46 -22 110 -46 142 -55z m-70 85 c3 -6 -1 -7 -9 -4 -18 7 -21 14 -7 14 6
0 13 -4 16 -10z m591 -517 c-5 -5 -36 86 -35 101 0 6 9 -13 20 -43 10 -30 17
-56 15 -58z m-461 -7 c37 -83 54 -161 70 -319 8 -80 17 -158 20 -174 15 -69
16 -79 5 -61 -6 9 -17 79 -26 155 -22 197 -41 296 -73 380 -34 85 -31 97 4 19z
m485 -41 c0 -5 -5 -3 -10 5 -5 8 -10 20 -10 25 0 6 5 3 10 -5 5 -8 10 -19 10
-25z m29 -70 c0 -5 -6 1 -14 15 -8 14 -14 30 -14 35 0 6 6 -1 14 -15 8 -14 14
-29 14 -35z m30 -70 c0 -5 -6 1 -14 15 -8 14 -14 30 -14 35 0 6 6 -1 14 -15 8
-14 14 -29 14 -35z m36 -101 c4 -25 3 -24 -8 6 -8 19 -17 46 -20 60 -5 19 -3
17 8 -6 7 -17 16 -44 20 -60z m12 -56 c-3 -8 -6 -5 -6 6 -1 11 2 17 5 13 3 -3
4 -12 1 -19z m10 -55 c-3 -10 -5 -4 -5 12 0 17 2 24 5 18 2 -7 2 -21 0 -30z
m10 -60 c-3 -10 -5 -4 -5 12 0 17 2 24 5 18 2 -7 2 -21 0 -30z"/>
<path d="M1920 2439 c-86 -23 -120 -41 -126 -65 -13 -51 -4 -54 106 -28 122
29 152 29 208 4 52 -24 56 -8 10 37 -63 60 -117 74 -198 52z"/>
<path d="M1359 2340 c-65 -11 -105 -35 -139 -82 -30 -41 -47 -84 -37 -94 2 -3
26 13 51 35 53 46 50 45 205 66 63 8 117 17 120 20 3 3 -2 18 -11 33 -15 24
-23 27 -80 29 -35 0 -84 -3 -109 -7z"/>
<path d="M1942 2266 c-64 -21 -92 -43 -113 -89 -27 -61 -25 -89 10 -110 35
-21 58 -21 102 -3 19 7 61 17 94 21 71 8 97 23 114 64 11 26 10 33 -6 54 -46
63 -125 87 -201 63z m121 -35 c14 -6 35 -20 46 -32 46 -49 16 -84 -85 -98 -38
-6 -83 -15 -100 -21 -46 -16 -84 1 -84 39 0 16 9 39 20 52 l19 24 1 -29 c0
-40 26 -66 67 -66 65 0 96 69 51 117 l-21 23 31 0 c17 0 42 -4 55 -9z m-83
-27 c0 -20 -30 -30 -40 -13 -11 17 7 40 26 32 8 -3 14 -12 14 -19z"/>
<path d="M1785 2167 c-9 -21 -1 -113 16 -172 7 -26 28 -56 58 -85 57 -53 71
-78 71 -120 0 -47 -28 -85 -82 -115 -27 -15 -47 -29 -44 -32 8 -9 67 16 102
42 18 14 37 25 42 25 20 0 31 73 13 85 -5 3 -12 18 -16 33 -3 16 -30 52 -59
80 -59 57 -72 90 -85 207 -5 49 -10 64 -16 52z"/>
<path d="M1337 2155 c-60 -21 -101 -66 -121 -132 -6 -18 0 -27 34 -49 39 -26
43 -27 93 -15 29 7 87 17 130 21 70 6 82 11 110 39 l32 32 -21 37 c-43 74
-155 104 -257 67z m171 -29 c15 -8 38 -26 52 -40 19 -21 22 -31 14 -44 -16
-25 -54 -42 -97 -42 -37 0 -38 0 -23 22 9 12 16 34 16 48 0 14 -7 36 -16 48
-14 21 -14 22 6 22 12 0 33 -6 48 -14z m-85 -10 c3 -8 -1 -20 -9 -27 -12 -10
-18 -9 -31 3 -8 9 -12 21 -9 27 10 16 43 14 49 -3z m-111 -41 c-3 -29 1 -40
27 -64 30 -28 30 -29 8 -35 -61 -16 -105 11 -93 59 5 20 49 75 60 75 1 0 0
-16 -2 -35z"/>
<path d="M735 1958 c47 -17 55 -26 44 -54 -13 -36 -11 -97 4 -117 10 -15 11
-10 9 32 -2 27 2 59 9 72 l12 23 37 -42 c26 -28 39 -54 43 -83 3 -22 15 -51
26 -63 42 -45 18 -70 -43 -46 -39 14 -31 1 8 -15 19 -8 42 -12 50 -9 22 8 20
47 -4 86 -11 18 -20 47 -20 64 0 24 -12 45 -46 83 -53 58 -90 81 -131 80 l-28
-1 30 -10z"/>
<path d="M972 1830 c0 -14 2 -19 5 -12 2 6 2 18 0 25 -3 6 -5 1 -5 -13z"/>
<path d="M1032 1800 c0 -19 2 -27 5 -17 2 9 2 25 0 35 -3 9 -5 1 -5 -18z"/>
<path d="M992 1770 c0 -14 4 -36 8 -50 8 -24 8 -24 8 5 0 17 -3 39 -8 50 -8
18 -9 18 -8 -5z"/>
<path d="M1053 1715 c0 -33 2 -45 4 -27 2 18 2 45 0 60 -2 15 -4 0 -4 -33z"/>
<path d="M1621 1728 c-11 -29 8 -62 38 -66 12 -2 35 8 53 23 21 18 39 25 55
22 24 -4 31 7 12 18 -16 11 -55 -3 -88 -31 -27 -22 -34 -24 -47 -13 -11 9 -14
22 -10 41 7 34 -1 37 -13 6z"/>
<path d="M1022 1670 c0 -19 2 -27 5 -17 2 9 2 25 0 35 -3 9 -5 1 -5 -18z"/>
<path d="M1081 1644 c0 -27 4 -58 9 -69 6 -13 7 3 3 45 -7 79 -13 91 -12 24z"/>
<path d="M1120 1565 c0 -39 4 -65 11 -65 6 0 9 24 7 65 -4 84 -18 84 -18 0z"/>
<path d="M2020 1601 c0 -10 -126 -53 -210 -72 -30 -6 -113 -13 -185 -15 -107
-3 -131 -6 -133 -19 -2 -8 2 -15 8 -15 6 0 28 -14 49 -30 82 -67 228 -90 333
-54 61 20 122 74 142 126 10 23 24 47 33 53 9 7 13 17 9 23 -9 14 -46 16 -46
3z m-30 -80 c-38 -76 -110 -111 -225 -111 -76 0 -118 11 -175 44 l-35 21 95 7
c113 9 225 31 300 57 30 11 56 20 58 20 1 1 -7 -17 -18 -38z"/>
</g>
</svg>
